<svg xmlns="http://www.w3.org/2000/svg" viewBox="0 0 500 500" width="500" height="500">
  <defs>
    <filter id="soft" x="-5%" y="-5%" width="110%" height="110%">
      <feGaussianBlur stdDeviation="2.0"/>
    </filter>
    <filter id="crisp">
      <feGaussianBlur stdDeviation="0.5"/>
    </filter>
  </defs>
  <rect width="500" height="500" fill="#0E0E0E"/>
  <path d="M 225.02 453.47 L 214.83 451.85 L 204.75 449.71 L 194.79 447.08 L 184.98 443.94 L 175.35 440.32 L 165.92 436.22 L 156.71 431.66 L 147.74 426.64 L 139.05 421.18 L 130.65 415.29 L 122.55 408.99 L 114.79 402.29 L 107.38 395.21 L 100.34 387.78 L 93.68 380.01 L 87.43 371.91 L 81.60 363.52 L 76.20 354.84 L 71.24 345.91 L 66.75 336.75 L 62.72 327.38 L 59.17 317.83 L 56.11 308.11 L 53.54 298.26 L 51.47 288.29 L 49.91 278.24 L 48.85 268.13 L 48.31 257.98 L 48.27 247.83 L 48.75 237.69 L 49.74 227.60 L 51.23 217.57 L 53.22 207.63 L 55.71 197.82 L 58.69 188.15 L 62.15 178.64 L 66.08 169.33 L 70.47 160.23 L 75.31 151.37 L 80.59 142.76 L 86.29 134.44 L 92.40 126.42 L 98.90 118.73 L 105.77 111.37 L 113.01 104.37 L 120.58 97.75 L 128.47 91.52 L 136.66 85.70 L 145.13 80.30 L 153.85 75.34 L 162.81 70.83 L 171.97 66.77 L 181.33 63.18 L 190.84 60.07 L 200.50 57.45 L 210.27 55.31 L 220.13 53.67 L 230.06 52.53 L 240.02 51.89 L 250.00 51.75 L 259.97 52.11 L 269.90 52.98 L 279.77 54.34 L 289.55 56.19 L 299.22 58.54 L 308.75 61.36 L 318.13 64.66 L 327.32 68.43 L 336.31 72.65 L 345.07 77.31 L 353.57 82.41 L 361.81 87.92 L 369.75 93.84 L 377.38 100.15 L 384.68 106.83 L 391.63 113.86 L 398.22 121.23 L 404.42 128.92 L 410.22 136.91 L 415.61 145.17 L 420.58 153.69 L 425.10 162.44 L 429.18 171.41 L 432.81 180.56 L 435.96 189.88 L 438.64 199.34 L 440.84 208.91 L 442.55 218.58 L 443.78 228.32 L 444.51 238.10 L 444.75 247.90 L 444.50 257.70 L 443.75 267.46 L 442.52 277.17 L 440.80 286.80 L 438.59 296.32 L 435.92 305.72 L 432.77 314.96 L 429.17 324.03 L 425.12 332.90 L 420.63 341.55 L 415.71 349.96 L 410.38 358.11 L 404.65 365.97 L 398.53 373.53 L 392.05 380.77 L 385.21 387.67 L 378.04 394.21 L 370.55 400.38 L 362.77 406.17 L 354.71 411.55 L 346.39 416.51 L 337.84 421.05 L 329.08 425.15 L 320.13 428.80 L 311.01 432.00 L 301.75 434.73 L 292.37 436.99 L 282.89 438.77 L 273.34 440.07 A 1.50 1.50 0 1 1 272.97 437.09 L 282.34 435.59 L 291.61 433.62 L 300.76 431.19 L 309.77 428.30 L 318.62 424.96 L 327.29 421.18 L 335.75 416.98 L 343.99 412.36 L 351.98 407.33 L 359.69 401.91 L 367.13 396.11 L 374.25 389.95 L 381.06 383.44 L 387.52 376.61 L 393.63 369.46 L 399.37 362.01 L 404.72 354.29 L 409.67 346.32 L 414.22 338.11 L 418.34 329.69 L 422.03 321.08 L 425.28 312.30 L 428.09 303.37 L 430.44 294.32 L 432.33 285.17 L 433.75 275.93 L 434.71 266.65 L 435.20 257.33 L 435.23 248.01 L 434.78 238.70 L 433.87 229.43 L 432.49 220.23 L 430.65 211.11 L 428.35 202.10 L 425.61 193.22 L 422.43 184.50 L 418.81 175.96 L 414.77 167.61 L 410.32 159.48 L 405.47 151.59 L 400.23 143.96 L 394.62 136.60 L 388.65 129.55 L 382.33 122.80 L 375.69 116.39 L 368.74 110.32 L 361.49 104.62 L 353.97 99.28 L 346.20 94.34 L 338.19 89.80 L 329.97 85.66 L 321.56 81.95 L 312.98 78.67 L 304.25 75.83 L 295.39 73.43 L 286.43 71.48 L 277.39 69.98 L 268.28 68.95 L 259.15 68.37 L 250.00 68.25 L 240.86 68.59 L 231.76 69.39 L 222.72 70.65 L 213.75 72.36 L 204.89 74.52 L 196.15 77.12 L 187.56 80.15 L 179.14 83.61 L 170.91 87.49 L 162.89 91.77 L 155.10 96.45 L 147.56 101.51 L 140.29 106.94 L 133.30 112.72 L 126.62 118.85 L 120.26 125.30 L 114.24 132.06 L 108.57 139.10 L 103.26 146.42 L 98.33 154.00 L 93.79 161.80 L 89.65 169.82 L 85.93 178.03 L 82.62 186.42 L 79.74 194.95 L 77.30 203.62 L 75.29 212.39 L 73.73 221.24 L 72.62 230.16 L 71.96 239.11 L 71.75 248.08 L 71.99 257.05 L 72.68 265.98 L 73.82 274.86 L 75.41 283.67 L 77.43 292.39 L 79.89 300.98 L 82.77 309.44 L 86.08 317.73 L 89.80 325.84 L 93.91 333.75 L 98.42 341.44 L 103.30 348.89 L 108.55 356.07 L 114.16 362.98 L 120.09 369.59 L 126.35 375.90 L 132.92 381.87 L 139.77 387.51 L 146.89 392.79 L 154.27 397.70 L 161.87 402.23 L 169.69 406.37 L 177.71 410.11 L 185.89 413.44 L 194.23 416.35 L 202.70 418.84 L 211.28 420.89 L 219.94 422.51 L 228.67 423.70 A 15.00 15.00 0 1 1 225.02 453.47 Z" fill="#F2EFE9" opacity="0.16" filter="url(#soft)"/>
  <path d="M 225.02 453.47 L 214.83 451.85 L 204.75 449.71 L 194.79 447.08 L 184.98 443.94 L 175.35 440.32 L 165.92 436.22 L 156.71 431.66 L 147.74 426.64 L 139.05 421.18 L 130.65 415.29 L 122.55 408.99 L 114.79 402.29 L 107.38 395.21 L 100.34 387.78 L 93.68 380.01 L 87.43 371.91 L 81.60 363.52 L 76.20 354.84 L 71.24 345.91 L 66.75 336.75 L 62.72 327.38 L 59.17 317.83 L 56.11 308.11 L 53.54 298.26 L 51.47 288.29 L 49.91 278.24 L 48.85 268.13 L 48.31 257.98 L 48.27 247.83 L 48.75 237.69 L 49.74 227.60 L 51.23 217.57 L 53.22 207.63 L 55.71 197.82 L 58.69 188.15 L 62.15 178.64 L 66.08 169.33 L 70.47 160.23 L 75.31 151.37 L 80.59 142.76 L 86.29 134.44 L 92.40 126.42 L 98.90 118.73 L 105.77 111.37 L 113.01 104.37 L 120.58 97.75 L 128.47 91.52 L 136.66 85.70 L 145.13 80.30 L 153.85 75.34 L 162.81 70.83 L 171.97 66.77 L 181.33 63.18 L 190.84 60.07 L 200.50 57.45 L 210.27 55.31 L 220.13 53.67 L 230.06 52.53 L 240.02 51.89 L 250.00 51.75 L 259.97 52.11 L 269.90 52.98 L 279.77 54.34 L 289.55 56.19 L 299.22 58.54 L 308.75 61.36 L 318.13 64.66 L 327.32 68.43 L 336.31 72.65 L 345.07 77.31 L 353.57 82.41 L 361.81 87.92 L 369.75 93.84 L 377.38 100.15 L 384.68 106.83 L 391.63 113.86 L 398.22 121.23 L 404.42 128.92 L 410.22 136.91 L 415.61 145.17 L 420.58 153.69 L 425.10 162.44 L 429.18 171.41 L 432.81 180.56 L 435.96 189.88 L 438.64 199.34 L 440.84 208.91 L 442.55 218.58 L 443.78 228.32 L 444.51 238.10 L 444.75 247.90 L 444.50 257.70 L 443.75 267.46 L 442.52 277.17 L 440.80 286.80 L 438.59 296.32 L 435.92 305.72 L 432.77 314.96 L 429.17 324.03 L 425.12 332.90 L 420.63 341.55 L 415.71 349.96 L 410.38 358.11 L 404.65 365.97 L 398.53 373.53 L 392.05 380.77 L 385.21 387.67 L 378.04 394.21 L 370.55 400.38 L 362.77 406.17 L 354.71 411.55 L 346.39 416.51 L 337.84 421.05 L 329.08 425.15 L 320.13 428.80 L 311.01 432.00 L 301.75 434.73 L 292.37 436.99 L 282.89 438.77 L 273.34 440.07 A 1.50 1.50 0 1 1 272.97 437.09 L 282.34 435.59 L 291.61 433.62 L 300.76 431.19 L 309.77 428.30 L 318.62 424.96 L 327.29 421.18 L 335.75 416.98 L 343.99 412.36 L 351.98 407.33 L 359.69 401.91 L 367.13 396.11 L 374.25 389.95 L 381.06 383.44 L 387.52 376.61 L 393.63 369.46 L 399.37 362.01 L 404.72 354.29 L 409.67 346.32 L 414.22 338.11 L 418.34 329.69 L 422.03 321.08 L 425.28 312.30 L 428.09 303.37 L 430.44 294.32 L 432.33 285.17 L 433.75 275.93 L 434.71 266.65 L 435.20 257.33 L 435.23 248.01 L 434.78 238.70 L 433.87 229.43 L 432.49 220.23 L 430.65 211.11 L 428.35 202.10 L 425.61 193.22 L 422.43 184.50 L 418.81 175.96 L 414.77 167.61 L 410.32 159.48 L 405.47 151.59 L 400.23 143.96 L 394.62 136.60 L 388.65 129.55 L 382.33 122.80 L 375.69 116.39 L 368.74 110.32 L 361.49 104.62 L 353.97 99.28 L 346.20 94.34 L 338.19 89.80 L 329.97 85.66 L 321.56 81.95 L 312.98 78.67 L 304.25 75.83 L 295.39 73.43 L 286.43 71.48 L 277.39 69.98 L 268.28 68.95 L 259.15 68.37 L 250.00 68.25 L 240.86 68.59 L 231.76 69.39 L 222.72 70.65 L 213.75 72.36 L 204.89 74.52 L 196.15 77.12 L 187.56 80.15 L 179.14 83.61 L 170.91 87.49 L 162.89 91.77 L 155.10 96.45 L 147.56 101.51 L 140.29 106.94 L 133.30 112.72 L 126.62 118.85 L 120.26 125.30 L 114.24 132.06 L 108.57 139.10 L 103.26 146.42 L 98.33 154.00 L 93.79 161.80 L 89.65 169.82 L 85.93 178.03 L 82.62 186.42 L 79.74 194.95 L 77.30 203.62 L 75.29 212.39 L 73.73 221.24 L 72.62 230.16 L 71.96 239.11 L 71.75 248.08 L 71.99 257.05 L 72.68 265.98 L 73.82 274.86 L 75.41 283.67 L 77.43 292.39 L 79.89 300.98 L 82.77 309.44 L 86.08 317.73 L 89.80 325.84 L 93.91 333.75 L 98.42 341.44 L 103.30 348.89 L 108.55 356.07 L 114.16 362.98 L 120.09 369.59 L 126.35 375.90 L 132.92 381.87 L 139.77 387.51 L 146.89 392.79 L 154.27 397.70 L 161.87 402.23 L 169.69 406.37 L 177.71 410.11 L 185.89 413.44 L 194.23 416.35 L 202.70 418.84 L 211.28 420.89 L 219.94 422.51 L 228.67 423.70 A 15.00 15.00 0 1 1 225.02 453.47 Z" fill="#F2EFE9" opacity="0.13" filter="url(#crisp)"/>
  <text x="250" y="255" text-anchor="middle" dominant-baseline="middle"
    font-family="Cormorant, Georgia, serif" font-size="70" font-weight="400"
    letter-spacing="11" fill="#F2EFE9" opacity="0.90">sunyata</text>
</svg>
